<?xml version="1.0" standalone="no"?>
<!DOCTYPE svg PUBLIC "-//W3C//DTD SVG 20010904//EN"
 "http://www.w3.org/TR/2001/REC-SVG-20010904/DTD/svg10.dtd">
<svg version="1.0" xmlns="http://www.w3.org/2000/svg"
 width="1418.000000pt" height="1418.000000pt" viewBox="0 0 1418.000000 1418.000000"
 preserveAspectRatio="xMidYMid meet">
<metadata>
Created by potrace 1.11, written by Peter Selinger 2001-2013
</metadata>
<g transform="translate(0.000000,1418.000000) scale(0.100000,-0.100000)"
fill="#000000" stroke="none">
<path d="M471 14175 c2 -2 849 -850 1883 -1884 l1878 -1880 22 20 c11 11 53
46 91 77 39 31 72 59 75 62 3 3 39 30 80 61 381 280 755 478 1178 623 129 44
331 104 380 112 15 3 41 9 57 14 17 5 80 18 140 30 61 11 119 22 130 24 11 2
45 7 75 11 30 4 64 9 75 11 11 2 50 7 87 10 36 3 79 7 95 9 15 2 36 4 45 4 15
1 17 95 17 1351 l0 1350 -3156 0 c-1736 0 -3154 -2 -3152 -5z"/>
<path d="M7420 12826 c0 -1275 1 -1346 18 -1347 9 0 31 -2 47 -4 17 -2 57 -6
90 -9 33 -4 71 -8 85 -10 14 -3 46 -7 71 -10 62 -8 246 -43 354 -67 144 -32
475 -133 570 -174 17 -7 57 -23 90 -36 133 -50 468 -218 580 -289 17 -11 44
-27 60 -36 103 -58 350 -237 496 -360 l86 -72 953 953 952 952 -47 44 c-27 24
-53 49 -59 54 -6 6 -38 33 -71 60 -33 28 -62 52 -65 55 -17 18 -180 148 -260
208 -52 39 -100 75 -105 80 -24 20 -309 213 -405 274 -321 204 -726 412 -1107
569 -13 5 -33 13 -45 18 -410 171 -978 328 -1483 410 -109 18 -150 24 -255 37
-19 2 -48 6 -65 8 -27 4 -121 13 -215 21 -19 2 -88 6 -152 10 l-118 7 0 -1346z"/>
<path d="M10 10565 l0 -3155 1384 0 c1312 0 1385 1 1384 18 -1 30 17 229 27
292 2 14 9 63 15 110 6 47 15 103 20 125 5 22 19 85 30 140 133 622 434 1260
827 1752 46 58 83 107 81 109 -16 17 -3763 3764 -3765 3764 -2 0 -3 -1420 -3
-3155z"/>
<path d="M11383 10922 c-516 -517 -944 -946 -952 -955 -12 -15 -7 -25 41 -84
329 -406 587 -886 752 -1401 39 -121 111 -403 121 -474 3 -24 10 -59 15 -78 5
-19 11 -55 14 -80 4 -25 8 -56 11 -70 6 -36 14 -105 21 -185 3 -38 7 -79 9
-90 2 -11 4 -37 4 -57 l1 -38 1381 0 1380 0 -6 98 c-3 53 -8 122 -11 152 -3
30 -7 79 -9 109 -3 30 -7 70 -9 90 -3 20 -8 61 -11 91 -4 30 -8 66 -10 80 -3
14 -11 70 -19 125 -25 164 -27 177 -42 247 -7 37 -16 81 -19 98 -3 16 -12 58
-20 92 -8 35 -16 74 -19 88 -42 209 -197 715 -286 935 -140 344 -175 423 -295
660 -244 482 -541 932 -888 1347 -112 135 -204 238 -212 238 -2 0 -426 -422
-942 -938z"/>
<path d="M7097 10054 c-1 -1 -67 -4 -147 -7 -80 -3 -161 -8 -180 -11 -19 -3
-55 -7 -80 -10 -25 -3 -72 -10 -105 -16 -33 -6 -75 -14 -93 -17 -18 -2 -90
-20 -160 -39 -70 -19 -134 -36 -143 -38 -45 -11 -302 -113 -383 -151 -901
-430 -1523 -1257 -1685 -2240 -20 -122 -28 -199 -36 -347 l-4 -88 619 0 620 0
1 28 c2 123 42 338 89 483 46 140 169 388 217 437 7 7 13 16 13 20 0 4 11 20
25 36 14 16 25 32 25 35 0 6 29 39 104 121 43 46 141 137 189 175 21 17 44 35
50 40 21 18 150 101 207 133 146 82 384 165 535 187 22 3 45 8 52 10 20 7 173
18 258 19 526 7 1041 -231 1380 -638 66 -79 169 -234 210 -316 15 -30 31 -63
36 -73 54 -104 117 -316 144 -482 24 -142 24 -438 0 -535 0 -3 -4 -27 -9 -55
-41 -265 -187 -580 -373 -808 -31 -37 -492 -504 -1025 -1038 l-970 -971 0
-837 c-1 -461 2 -842 5 -847 3 -5 275 -9 619 -9 l613 0 0 590 0 590 784 785
c431 432 818 823 860 870 113 125 254 316 322 436 115 202 178 331 243 507 66
177 134 439 151 582 4 28 8 57 10 65 2 8 7 47 11 85 3 39 8 86 10 105 5 48 5
408 -1 445 -2 17 -7 59 -10 95 -49 532 -287 1119 -625 1544 -108 135 -287 321
-400 417 -36 29 -67 57 -70 60 -11 13 -199 148 -265 191 -286 184 -575 309
-910 392 -55 14 -113 27 -130 30 -16 3 -57 10 -90 16 -33 5 -82 13 -110 16
-27 3 -56 7 -63 9 -7 3 -70 7 -140 11 -70 3 -142 7 -160 8 -18 1 -33 1 -35 0z"/>
<path d="M10 3613 l0 -3158 1919 1919 1918 1918 -83 102 c-151 181 -325 433
-431 620 -55 96 -215 429 -248 516 -145 372 -233 710 -280 1070 -3 25 -8 59
-10 75 -2 17 -4 45 -4 63 l-1 32 -1390 0 -1390 0 0 -3157z"/>
<path d="M11405 6708 c-4 -35 -8 -70 -10 -78 -1 -8 -6 -41 -9 -74 -24 -195
-81 -448 -152 -683 -134 -443 -361 -895 -642 -1278 -70 -95 -193 -247 -225
-279 -18 -18 -18 -19 5 -43 13 -14 456 -459 986 -989 660 -661 967 -962 976
-957 13 8 63 64 146 162 25 30 50 59 55 65 21 23 111 134 135 166 14 18 30 38
35 44 6 6 61 81 123 166 62 85 115 160 120 165 34 46 272 422 272 431 0 3 16
29 35 59 19 30 32 55 28 55 -3 0 1 8 10 18 26 29 248 475 312 627 9 22 21 49
25 60 5 11 18 40 28 65 94 218 271 753 318 962 2 10 6 26 8 36 14 59 48 211
52 232 3 14 7 32 9 40 2 8 7 29 10 45 2 17 7 41 10 55 10 47 44 255 50 310 4
30 9 62 10 71 3 15 11 78 20 159 13 123 19 187 30 363 l6 87 -1384 0 -1385 0
-7 -62z"/>
<path d="M2379 1914 c-1047 -1048 -1906 -1907 -1908 -1909 -2 -3 1041 -5 2318
-5 l2322 0 -4 897 c-2 494 -6 907 -9 918 -3 11 -9 52 -12 90 -4 39 -8 81 -11
95 -2 14 -9 57 -15 95 -18 124 -84 394 -129 530 -137 420 -354 828 -607 1142
l-42 52 -1903 -1905z"/>
<path d="M9860 3749 c-30 -39 -60 -76 -65 -83 -24 -26 -167 -249 -225 -351
-111 -192 -226 -451 -295 -662 -29 -88 -82 -275 -88 -313 -3 -14 -10 -43 -15
-65 -6 -22 -13 -53 -16 -70 -3 -16 -12 -70 -20 -120 -8 -49 -18 -115 -21 -145
-4 -30 -8 -68 -10 -85 -21 -170 -29 -1554 -9 -1562 6 -2 100 26 210 62 737
245 1417 601 2037 1067 124 93 379 301 453 371 23 21 50 44 60 52 18 13 -55
88 -961 995 l-980 980 -55 -71z"/>
<path d="M6479 1310 c0 -47 -1 -1160 0 -1185 1 -20 9 -20 279 -23 574 -5 952
0 953 13 5 31 4 1225 -1 1226 -3 0 -281 2 -618 2 l-612 2 -1 -35z"/>
</g>
</svg>
